<svg width="14" height="25" viewBox="0 0 14 25" fill="none" xmlns="http://www.w3.org/2000/svg">
<g clip-path="url(#clip0_73_320)">
<path d="M2.1167 12.5L13.3667 0.833333L13.3667 24.1667L2.1167 12.5Z" fill="url(#paint0_linear_73_320)" fill-opacity="0.3"/>
<path fill-rule="evenodd" clip-rule="evenodd" d="M13.5597 0.0136407C13.9058 0.0631794 14.1479 0.238147 14.1479 0.438638L14.1479 24.5614C14.1479 24.7619 13.9058 24.9369 13.5597 24.9864C13.2137 25.036 12.8519 24.9475 12.6808 24.7715L0.962094 12.7101C0.834902 12.5792 0.834902 12.4209 0.962094 12.29L12.6808 0.228615C12.8519 0.0526052 13.2137 -0.035898 13.5597 0.0136407ZM2.1167 12.5L13.3667 0.833333L13.3667 24.1667L2.1167 12.5Z" fill="url(#paint1_linear_73_320)"/>
</g>
<g clip-path="url(#clip1_73_320)">
<path d="M2.1167 12.5L13.3667 0.833333L13.3667 24.1667L2.1167 12.5Z" fill="url(#paint2_linear_73_320)" fill-opacity="0.3"/>
<path fill-rule="evenodd" clip-rule="evenodd" d="M13.5597 0.0136407C13.9058 0.0631794 14.1479 0.238147 14.1479 0.438638L14.1479 24.5614C14.1479 24.7619 13.9058 24.9369 13.5597 24.9864C13.2137 25.036 12.8519 24.9475 12.6808 24.7715L0.962094 12.7101C0.834902 12.5792 0.834902 12.4209 0.962094 12.29L12.6808 0.228615C12.8519 0.0526052 13.2137 -0.035898 13.5597 0.0136407ZM2.1167 12.5L13.3667 0.833333L13.3667 24.1667L2.1167 12.5Z" fill="url(#paint3_linear_73_320)"/>
</g>
<defs>
<linearGradient id="paint0_linear_73_320" x1="14.1479" y1="12.5" x2="0.866699" y2="12.5" gradientUnits="userSpaceOnUse">
<stop stop-color="#F8E889" stop-opacity="0.1"/>
<stop offset="1" stop-color="#E4B764"/>
</linearGradient>
<linearGradient id="paint1_linear_73_320" x1="0.476074" y1="12.0176" x2="13.3667" y2="12.0176" gradientUnits="userSpaceOnUse">
<stop stop-color="#E4B764"/>
<stop offset="1" stop-color="#E4B764" stop-opacity="0.1"/>
</linearGradient>
<linearGradient id="paint2_linear_73_320" x1="14.1479" y1="12.5" x2="0.866699" y2="12.5" gradientUnits="userSpaceOnUse">
<stop stop-color="#F8E889" stop-opacity="0.1"/>
<stop offset="1" stop-color="#E4B764"/>
</linearGradient>
<linearGradient id="paint3_linear_73_320" x1="0.476074" y1="12.0176" x2="13.3667" y2="12.0176" gradientUnits="userSpaceOnUse">
<stop stop-color="#E4B764"/>
<stop offset="1" stop-color="#E4B764" stop-opacity="0.1"/>
</linearGradient>
<clipPath id="clip0_73_320">
<rect width="25" height="12.5" fill="white" transform="matrix(0 1 -1 0 13.3667 0)"/>
</clipPath>
<clipPath id="clip1_73_320">
<rect width="25" height="12.5" fill="white" transform="matrix(0 1 -1 0 13.3667 0)"/>
</clipPath>
</defs>
</svg>
