<svg width="14" height="25" viewBox="0 0 14 25" fill="none" xmlns="http://www.w3.org/2000/svg">
<g clip-path="url(#clip0_73_333)">
<path d="M11.8833 12.5L0.633301 24.1667L0.633301 0.833334L11.8833 12.5Z" fill="url(#paint0_linear_73_333)" fill-opacity="0.3"/>
<path fill-rule="evenodd" clip-rule="evenodd" d="M0.440264 24.9864C0.0942135 24.9368 -0.147949 24.7619 -0.147949 24.5614L-0.147949 0.438555C-0.147949 0.238064 0.0942135 0.063097 0.440264 0.0135574C0.786314 -0.0359802 1.14815 0.0525208 1.31916 0.228531L13.0379 12.2899C13.1651 12.4208 13.1651 12.5791 13.0379 12.71L1.31916 24.7714C1.14815 24.9474 0.786314 25.0359 0.440264 24.9864ZM11.8833 12.5L0.633301 24.1667L0.633301 0.833334L11.8833 12.5Z" fill="url(#paint1_linear_73_333)"/>
</g>
<g clip-path="url(#clip1_73_333)">
<path d="M11.8833 12.5L0.633301 24.1667L0.633301 0.833334L11.8833 12.5Z" fill="url(#paint2_linear_73_333)" fill-opacity="0.3"/>
<path fill-rule="evenodd" clip-rule="evenodd" d="M0.440264 24.9864C0.0942135 24.9368 -0.147949 24.7619 -0.147949 24.5614L-0.147949 0.438555C-0.147949 0.238064 0.0942135 0.063097 0.440264 0.0135574C0.786314 -0.0359802 1.14815 0.0525208 1.31916 0.228531L13.0379 12.2899C13.1651 12.4208 13.1651 12.5791 13.0379 12.71L1.31916 24.7714C1.14815 24.9474 0.786314 25.0359 0.440264 24.9864ZM11.8833 12.5L0.633301 24.1667L0.633301 0.833334L11.8833 12.5Z" fill="url(#paint3_linear_73_333)"/>
</g>
<defs>
<linearGradient id="paint0_linear_73_333" x1="-0.147949" y1="12.5" x2="13.1333" y2="12.5" gradientUnits="userSpaceOnUse">
<stop stop-color="#F8E889" stop-opacity="0.1"/>
<stop offset="1" stop-color="#E4B764"/>
</linearGradient>
<linearGradient id="paint1_linear_73_333" x1="13.5239" y1="12.9824" x2="0.633302" y2="12.9824" gradientUnits="userSpaceOnUse">
<stop stop-color="#E4B764"/>
<stop offset="1" stop-color="#E4B764" stop-opacity="0.1"/>
</linearGradient>
<linearGradient id="paint2_linear_73_333" x1="-0.147949" y1="12.5" x2="13.1333" y2="12.5" gradientUnits="userSpaceOnUse">
<stop stop-color="#F8E889" stop-opacity="0.1"/>
<stop offset="1" stop-color="#E4B764"/>
</linearGradient>
<linearGradient id="paint3_linear_73_333" x1="13.5239" y1="12.9824" x2="0.633302" y2="12.9824" gradientUnits="userSpaceOnUse">
<stop stop-color="#E4B764"/>
<stop offset="1" stop-color="#E4B764" stop-opacity="0.1"/>
</linearGradient>
<clipPath id="clip0_73_333">
<rect width="25" height="12.5" fill="white" transform="matrix(0 -1 1 0 0.633301 25)"/>
</clipPath>
<clipPath id="clip1_73_333">
<rect width="25" height="12.5" fill="white" transform="matrix(0 -1 1 0 0.633301 25)"/>
</clipPath>
</defs>
</svg>
