<svg width="28" height="20" viewBox="0 0 28 20" fill="none" xmlns="http://www.w3.org/2000/svg">
<path d="M5.3554 13.8176L2.09885 13.8864C2.00537 13.8677 1.90813 13.8688 1.8128 13.8896C1.71747 13.9104 1.62597 13.9505 1.54362 14.0076C1.46126 14.0646 1.38972 14.1374 1.33314 14.2218C1.27657 14.3062 1.2361 14.4005 1.2141 14.4991L1.20065 14.4994L1.07712 17.7693L1.09887 17.7688C1.12709 17.9132 1.19669 18.0431 1.29881 18.1418C1.40092 18.2404 1.5309 18.3035 1.67217 18.3229L1.67111 18.3508L6.53634 18.2481L6.53702 18.23C7.03494 18.2132 7.47273 17.9108 7.70979 17.4796L10.8363 14.2913L7.92005 11.2022L5.3554 13.8176Z" fill="#F8E889"/>
<path d="M27.2445 4.01523L22.0662 0.185922C22.0136 0.146375 21.9505 0.123552 21.884 0.120023C21.8175 0.116494 21.7502 0.132399 21.6898 0.165946C21.6287 0.199583 21.5767 0.249603 21.5397 0.310464C21.5027 0.371326 21.482 0.440653 21.48 0.510767L21.4177 2.17514L17.1489 2.26523L17.1486 2.27296C16.8536 2.29569 16.5687 2.4208 16.34 2.62805L16.3342 2.62193L13.1839 5.83395L16.1004 8.92297L18.2838 6.69641L21.251 6.63378L21.1841 8.41885C21.1787 8.56183 21.2513 8.69189 21.3716 8.75529C21.4919 8.81869 21.6403 8.80397 21.7562 8.71776L27.2223 4.63827C27.3218 4.56458 27.3614 4.44791 27.366 4.32454L27.3661 4.32365C27.3705 4.1997 27.3391 4.08482 27.2445 4.01523Z" fill="#F8E889"/>
<path d="M26.8153 14.8214L21.6489 10.9666C21.5953 10.9268 21.5313 10.9038 21.4639 10.9001C21.3965 10.8963 21.3283 10.9121 21.2668 10.9455C21.2053 10.9789 21.1529 11.0288 21.1153 11.0896C21.0776 11.1504 21.0563 11.2198 21.0536 11.2902L20.9856 13.0753L18.0181 13.1379L8.2427 2.78426C8.03787 2.36235 7.62224 2.07825 7.12508 2.08251L7.12576 2.06437L2.26054 2.16705L2.25948 2.195C2.11653 2.22036 1.98157 2.289 1.87183 2.39215C1.76209 2.4953 1.68256 2.62829 1.64338 2.77413L1.62134 2.7746L1.49781 6.04452L1.51183 6.04422C1.52637 6.1421 1.55975 6.23482 1.61003 6.31697C1.6603 6.39913 1.72645 6.46907 1.80463 6.52272C1.88281 6.57637 1.97145 6.61266 2.06537 6.62945C2.15929 6.64625 2.25662 6.64322 2.35166 6.62055L5.60793 6.55183L15.7575 17.3018L15.7638 17.2955C15.9773 17.4933 16.2533 17.6066 16.5472 17.6169L16.5469 17.6247L20.8157 17.5346L20.7522 19.199C20.7468 19.3428 20.8162 19.4733 20.9363 19.5355C20.9941 19.5667 21.0603 19.58 21.1272 19.5737C21.1941 19.5674 21.2591 19.5418 21.3148 19.4999L26.7908 15.4457C26.8908 15.3717 26.931 15.2553 26.9357 15.1311L26.9357 15.1299C26.9401 15.0065 26.9093 14.891 26.8153 14.8214Z" fill="#F8E889"/>
</svg>
