<svg width="21" height="20" viewBox="0 0 21 20" fill="none" xmlns="http://www.w3.org/2000/svg">
<g clip-path="url(#clip0_1_22521)">
<path d="M18.4375 20H3.0625C2.35514 20 1.75122 19.7559 1.25073 19.2676C0.750244 18.7793 0.5 18.1901 0.5 17.5V15.625C0.5 15.2865 0.623454 14.9935 0.870361 14.7461C1.11727 14.4987 1.41756 14.375 1.77124 14.375C2.12492 14.375 2.42855 14.4987 2.68213 14.7461C2.93571 14.9935 3.0625 15.2865 3.0625 15.625V16.25C3.0625 16.6016 3.18595 16.8978 3.43286 17.1387C3.67977 17.3796 3.9834 17.5 4.34375 17.5H17.1562C17.5033 17.5 17.8035 17.3796 18.0571 17.1387C18.3107 16.8978 18.4375 16.6016 18.4375 16.25V15.625C18.4375 15.2865 18.561 14.9935 18.8079 14.7461C19.0548 14.4987 19.3551 14.375 19.7087 14.375C20.0624 14.375 20.366 14.4987 20.6196 14.7461C20.8732 14.9935 21 15.2865 21 15.625V17.5C21 18.1901 20.7498 18.7793 20.2493 19.2676C19.7488 19.7559 19.1449 20 18.4375 20ZM11.4106 14.7266C11.2238 14.9089 11.0036 15 10.75 15C10.4964 15 10.2762 14.9089 10.0894 14.7266L3.2627 7.98828C3.10254 7.81901 3.04582 7.69531 3.09253 7.61719C3.13924 7.53906 3.2627 7.5 3.46289 7.5H8.1875V1.25C8.1875 0.898438 8.31095 0.602214 8.55786 0.361328C8.80477 0.120443 9.1084 0 9.46875 0H12.0312C12.3916 0 12.6952 0.120443 12.9421 0.361328C13.189 0.602214 13.3125 0.898438 13.3125 1.25V7.5H18.0171C18.2173 7.5 18.3441 7.53906 18.3975 7.61719C18.4508 7.69531 18.3975 7.81901 18.2373 7.98828L11.4106 14.7266Z" fill="#1A1A1A"/>
</g>
<defs>
<clipPath id="clip0_1_22521">
<rect width="20.5" height="20" fill="white" transform="translate(0.5)"/>
</clipPath>
</defs>
</svg>
