<svg width="23" height="24" viewBox="0 0 23 24" fill="none" xmlns="http://www.w3.org/2000/svg">
<path d="M15.1012 15.8988L22.0908 9.02385C22.3423 8.77645 22.4681 8.48348 22.4681 8.14494C22.4681 7.8064 22.3423 7.51343 22.0908 7.26603L15.1012 0.391032C14.7041 -0.0126137 14.2474 -0.10376 13.7311 0.117594C13.2016 0.338949 12.9368 0.723063 12.9368 1.26994V4.39494C11.3615 4.39494 9.93186 4.52189 8.64779 4.7758C7.36372 5.0297 6.28814 5.36174 5.42106 5.77189C4.55398 6.18205 3.79942 6.69637 3.15739 7.31486C2.51535 7.93335 2.00901 8.5551 1.63835 9.1801C1.26769 9.8051 0.973145 10.5147 0.75472 11.309C0.536296 12.1033 0.393989 12.8292 0.327799 13.4867C0.26161 14.1443 0.228516 14.8637 0.228516 15.6449C0.228516 18.0017 1.33388 20.6319 3.5446 23.5356C3.69021 23.6918 3.85569 23.7699 4.04102 23.7699C4.13368 23.7699 4.21973 23.7504 4.29915 23.7113C4.59039 23.5942 4.71615 23.3793 4.67643 23.0668C4.09397 18.4574 4.50434 15.378 5.90755 13.8285C6.51649 13.1515 7.37695 12.6599 8.48893 12.3539C9.60091 12.0479 11.0835 11.8949 12.9368 11.8949V15.0199C12.9368 15.5668 13.2016 15.9509 13.7311 16.1723C13.89 16.2374 14.0488 16.2699 14.2077 16.2699C14.5519 16.2699 14.8497 16.1462 15.1012 15.8988Z" fill="#1A1A1A"/>
</svg>
