<svg width="21" height="20" viewBox="0 0 21 20" fill="none" xmlns="http://www.w3.org/2000/svg">
<path fill-rule="evenodd" clip-rule="evenodd" d="M0.763328 0.679973C0.763328 0.44632 0.957476 0.256908 1.19697 0.256908L5.09973 0.256908C5.33922 0.256908 5.53337 0.44632 5.53337 0.679973C5.53337 0.913625 5.33922 1.10304 5.09973 1.10304L2.24387 1.10304L6.40968 5.16725L5.79642 5.76556L1.63061 1.70134V4.48755C1.63061 4.72121 1.43646 4.91062 1.19697 4.91062C0.957476 4.91062 0.763328 4.72121 0.763328 4.48755L0.763328 0.679973Z" fill="#1A1A1A"/>
<path fill-rule="evenodd" clip-rule="evenodd" d="M20.7269 19.3165C20.7263 19.5502 20.5317 19.7391 20.2922 19.7385L16.3894 19.729C16.1499 19.7284 15.9563 19.5385 15.9569 19.3049C15.9575 19.0712 16.1521 18.8823 16.3916 18.8829L19.2474 18.8898L15.0921 14.8154L15.7069 14.2186L19.8622 18.293L19.8694 15.5068C19.87 15.2732 20.0646 15.0842 20.3041 15.0848C20.5436 15.0854 20.7373 15.2753 20.7367 15.5089L20.7269 19.3165Z" fill="#1A1A1A"/>
<path fill-rule="evenodd" clip-rule="evenodd" d="M1.19697 19.7431C0.957476 19.7431 0.763329 19.5537 0.763329 19.32L0.763329 15.5124C0.763329 15.2788 0.957476 15.0894 1.19697 15.0894C1.43646 15.0894 1.63061 15.2788 1.63061 15.5124L1.63061 18.2987L5.79642 14.2344L6.40968 14.8327L2.24387 18.897H5.09973C5.33922 18.897 5.53337 19.0864 5.53337 19.32C5.53337 19.5537 5.33922 19.7431 5.09973 19.7431L1.19697 19.7431Z" fill="#1A1A1A"/>
<path fill-rule="evenodd" clip-rule="evenodd" d="M20.304 0.265615C20.5435 0.266149 20.7372 0.455995 20.7367 0.689646L20.7277 4.49722C20.7272 4.73087 20.5326 4.91985 20.2931 4.91932C20.0536 4.91878 19.8599 4.72894 19.8605 4.49528L19.867 1.70908L15.6917 5.76399L15.0798 5.16432L19.2551 1.10941L16.3993 1.10304C16.1598 1.1025 15.9661 0.912655 15.9666 0.679004C15.9672 0.445352 16.1618 0.256373 16.4013 0.256908L20.304 0.265615Z" fill="#1A1A1A"/>
<path fill-rule="evenodd" clip-rule="evenodd" d="M15.7033 0.678417C15.7042 0.30288 16.0169 -0.000857475 16.4019 1.81876e-06L20.3046 0.0087089C20.6895 0.00956816 21.0009 0.314697 21 0.690233L20.9911 4.49781C20.9902 4.87334 20.6774 5.17708 20.2925 5.17622C19.9076 5.17536 19.5963 4.87023 19.5971 4.4947L19.6022 2.32872L15.6908 6.12731L14.7074 5.16349L18.6188 1.36489L16.3987 1.35994C16.0138 1.35908 15.7024 1.05395 15.7033 0.678417ZM16.4007 0.513813C16.3066 0.513603 16.2302 0.587825 16.23 0.679591C16.2298 0.771357 16.3058 0.845919 16.3999 0.846129L19.8915 0.853919L15.4522 5.16515L15.6925 5.40067L20.1318 1.08944L20.1238 4.49587C20.1236 4.58764 20.1997 4.6622 20.2937 4.66241C20.3878 4.66262 20.4642 4.5884 20.4644 4.49663L20.4733 0.689059C20.4736 0.597293 20.3975 0.52273 20.3034 0.52252L16.4007 0.513813ZM1.19697 1.52782e-06L5.09973 1.31344e-06C5.48466 1.31344e-06 5.7967 0.304435 5.7967 0.679973C5.7967 1.05551 5.48466 1.35994 5.09973 1.35994L2.8796 1.35994L6.78208 5.16725L5.79642 6.12888L1.89394 2.32157V4.48755C1.89394 4.86309 1.58189 5.16753 1.19697 5.16753C0.812044 5.16753 0.5 4.86309 0.5 4.48755L0.5 0.679973C0.5 0.304435 0.812043 1.49719e-06 1.19697 1.52782e-06ZM5.09973 0.513814L1.19697 0.513814C1.10291 0.513814 1.02666 0.588206 1.02666 0.679972L1.02666 4.48755C1.02666 4.57932 1.10291 4.65371 1.19697 4.65371C1.29103 4.65371 1.36728 4.57932 1.36728 4.48755L1.36728 1.08111L5.79642 5.40224L6.03727 5.16725L1.60814 0.846131L5.09973 0.846131C5.19379 0.846131 5.27004 0.771739 5.27004 0.679973C5.27004 0.588206 5.19379 0.513814 5.09973 0.513814ZM15.7078 13.8553L19.6005 17.6722L19.6061 15.5062C19.607 15.1306 19.9199 14.827 20.3048 14.8279C20.6897 14.8289 21.001 15.134 21 15.5096L20.9902 19.3172C20.9893 19.6927 20.6764 19.9964 20.2915 19.9954L16.3888 19.9859C16.0038 19.9849 15.6926 19.6798 15.6935 19.3042C15.6945 18.9287 16.0073 18.625 16.3923 18.6259L18.6124 18.6314L14.7197 14.8145L15.7078 13.8553ZM5.79642 13.8711L6.78208 14.8327L2.8796 18.6401H5.09973C5.48466 18.6401 5.7967 18.9445 5.7967 19.32C5.7967 19.6956 5.48466 20 5.09973 20L1.19697 20C0.812044 20 0.5 19.6956 0.5 19.32L0.5 15.5124C0.5 15.1369 0.812044 14.8325 1.19697 14.8325C1.58189 14.8325 1.89394 15.1369 1.89394 15.5124L1.89394 17.6784L5.79642 13.8711ZM15.4645 14.8164L19.8825 19.1483L16.3909 19.1398C16.2969 19.1395 16.2204 19.2137 16.2202 19.3055C16.22 19.3973 16.296 19.4718 16.3901 19.4721L20.2928 19.4816C20.3869 19.4818 20.4633 19.4076 20.4636 19.3159L20.4733 15.5083C20.4736 15.4165 20.3975 15.342 20.3035 15.3417C20.2094 15.3415 20.133 15.4157 20.1327 15.5075L20.124 18.9139L15.7059 14.582L15.4645 14.8164ZM5.79642 14.5978L1.36728 18.9189L1.36728 15.5124C1.36728 15.4207 1.29103 15.3463 1.19697 15.3463C1.10291 15.3463 1.02666 15.4207 1.02666 15.5124L1.02666 19.32C1.02666 19.4118 1.10291 19.4862 1.19697 19.4862L5.09973 19.4862C5.19379 19.4862 5.27004 19.4118 5.27004 19.32C5.27004 19.2283 5.19379 19.1539 5.09973 19.1539H1.60814L6.03728 14.8327L5.79642 14.5978Z" fill="#1A1A1A"/>
</svg>
